<?xml version="1.0" standalone="no"?>
<!DOCTYPE svg PUBLIC "-//W3C//DTD SVG 20010904//EN"
 "http://www.w3.org/TR/2001/REC-SVG-20010904/DTD/svg10.dtd">
<svg version="1.0" xmlns="http://www.w3.org/2000/svg"
 width="192.000000pt" height="192.000000pt" viewBox="0 0 192.000000 192.000000"
 preserveAspectRatio="xMidYMid meet">
<metadata>
Created by potrace 1.14, written by Peter Selinger 2001-2017
</metadata>
<g transform="translate(0.000000,192.000000) scale(0.100000,-0.100000)"
fill="#000000" stroke="none">
<path d="M0 960 l0 -960 960 0 960 0 0 960 0 960 -960 0 -960 0 0 -960z m701
582 c23 -40 550 -856 558 -864 4 -4 5 195 3 442 l-4 450 96 0 96 0 0 -615 0
-615 -97 0 c-54 0 -103 4 -109 8 -6 4 -138 205 -294 447 -155 242 -285 443
-289 447 -3 4 -6 -196 -6 -445 l0 -452 -90 0 -90 0 -3 613 -2 612 107 0 c107
0 108 0 124 -28z"/>
</g>
</svg>
