<?xml version="1.0" standalone="no"?>
<!DOCTYPE svg PUBLIC "-//W3C//DTD SVG 20010904//EN"
 "http://www.w3.org/TR/2001/REC-SVG-20010904/DTD/svg10.dtd">
<svg version="1.0" xmlns="http://www.w3.org/2000/svg"
 width="500.000000pt" height="500.000000pt" viewBox="0 0 500.000000 500.000000"
 preserveAspectRatio="xMidYMid meet">
<metadata>
Created by potrace 1.14, written by Peter Selinger 2001-2017
</metadata>
<g transform="translate(0.000000,500.000000) scale(0.100000,-0.100000)"
fill="#000000" stroke="none">
<path d="M0 2500 l0 -2500 2500 0 2500 0 0 2500 0 2500 -2500 0 -2500 0 0
-2500z m2733 1880 c240 -20 382 -74 502 -195 145 -144 225 -397 225 -711 0
-201 -43 -309 -174 -439 -118 -116 -242 -198 -606 -400 -96 -53 -178 -100
-182 -104 -4 -4 21 -245 57 -536 35 -292 66 -555 69 -585 3 -30 10 -102 16
-160 31 -287 -66 -488 -284 -595 -141 -70 -301 -82 -410 -32 -115 53 -134 185
-52 362 66 140 159 236 294 302 42 20 79 38 81 40 2 1 -15 85 -37 185 -23 101
-89 407 -147 682 -118 555 -116 532 -47 598 45 43 91 69 505 288 l327 172 -5
32 c-8 45 -95 645 -95 654 0 12 -205 2 -390 -18 -284 -33 -504 -85 -863 -206
-105 -35 -191 -63 -192 -61 -6 8 -135 390 -133 392 14 12 128 63 243 108 369
146 693 213 1136 235 20 1 93 -3 162 -8z"/>
</g>
</svg>
