<?xml version="1.0" standalone="no"?>
<!DOCTYPE svg PUBLIC "-//W3C//DTD SVG 20010904//EN"
 "http://www.w3.org/TR/2001/REC-SVG-20010904/DTD/svg10.dtd">
<svg version="1.0" xmlns="http://www.w3.org/2000/svg"
 width="800.000000pt" height="800.000000pt" viewBox="0 0 800.000000 800.000000"
 preserveAspectRatio="xMidYMid meet">
<metadata>
Created by potrace 1.14, written by Peter Selinger 2001-2017
</metadata>
<g transform="translate(0.000000,800.000000) scale(0.100000,-0.100000)"
fill="#000000" stroke="none">
<path d="M0 4000 l0 -4000 4000 0 4000 0 0 4000 0 4000 -4000 0 -4000 0 0
-4000z m1620 3692 l0 -157 2390 -2390 2390 -2390 0 2548 0 2547 725 0 725 0 0
-3850 0 -3850 -725 0 -725 0 0 178 0 177 -2390 2390 -2390 2390 0 -2568 0
-2567 -735 0 -735 0 0 3850 0 3850 735 0 735 0 0 -158z"/>
</g>
</svg>
